PathFileType	4	(X/Y/Z)	/Users/itak/Documents/Research/Walk-IL/dataset/trc/00512_00183.trc
DataRate	CameraRate	NumFrames	NumMarkers	Units	OrigDataRate	OrigDataStartFrame	OrigNumFrames
100.000000	100.000000	4	54	mm	100.000000	158	422
Frame#	Time	RPSI			LPSI			L3			STRN			T10			C7			CLAV			RBAK			LBAK			LSHO			LUPA			LAEL			LAOL			LWTS			LWPS			LFRA			LIFD			LHPS			LHTS			RSHO			RUPA			RAEL			RAOL			RWTS			RWPS			RFRA			RIFD			RHTS			RHPS			RBHD			LFHD			RFHD			LBHD			LHIP			RASI			LASI			LKNE			LTHI			LANK			LTIP			LTOE			LMT1			LMT5			LHEE			RKNE			RTHI			RANK			RTIP			RTOE			RMT1			RMT5			RHEE			RHIP			*53			
		X1	Y1	Z1	X2	Y2	Z2	X3	Y3	Z3	X4	Y4	Z4	X5	Y5	Z5	X6	Y6	Z6	X7	Y7	Z7	X8	Y8	Z8	X9	Y9	Z9	X10	Y10	Z10	X11	Y11	Z11	X12	Y12	Z12	X13	Y13	Z13	X14	Y14	Z14	X15	Y15	Z15	X16	Y16	Z16	X17	Y17	Z17	X18	Y18	Z18	X19	Y19	Z19	X20	Y20	Z20	X21	Y21	Z21	X22	Y22	Z22	X23	Y23	Z23	X24	Y24	Z24	X25	Y25	Z25	X26	Y26	Z26	X27	Y27	Z27	X28	Y28	Z28	X29	Y29	Z29	X30	Y30	Z30	X31	Y31	Z31	X32	Y32	Z32	X33	Y33	Z33	X34	Y34	Z34	X35	Y35	Z35	X36	Y36	Z36	X37	Y37	Z37	X38	Y38	Z38	X39	Y39	Z39	X40	Y40	Z40	X41	Y41	Z41	X42	Y42	Z42	X43	Y43	Z43	X44	Y44	Z44	X45	Y45	Z45	X46	Y46	Z46	X47	Y47	Z47	X48	Y48	Z48	X49	Y49	Z49	X50	Y50	Z50	X51	Y51	Z51	X52	Y52	Z52	X53	Y53	Z53	X54	Y54	Z54	

159	1.58	-806.7672119140625	935.9243774414062	-250.9459838867188	-747.6770629882812	932.8287963867188	-359.3700256347656	-751.6231689453125	1011.315612792969	-321.2228698730469	-531.9700317382812	1107.207641601562	-178.8592681884766	-735.30078125	1116.9541015625	-323.1255187988281	-649.2587280273438	1322.5185546875	-261.4679565429688	-543.566162109375	1209.017578125	-182.8356018066406	-765.3779907226562	1221.273193359375	-250.8153839111328	-622.22900390625	1276.55419921875	-353.1103210449219	-493.2718811035156	1300.504760742188	-343.034423828125	-481.1036071777344	1178.934448242188	-413.3839721679688	-489.7634887695312	1001.925170898438	-428.3735046386719	-582.1471557617188	968.5473022460938	-455.8380737304688	-437.4187927246094	975.7635498046875	-240.5149993896484	-452.6914978027344	883.6723022460938	-253.5197143554688	-465.9127807617188	966.5716552734375	-372.7826843261719	-433.2793579101562	911.3443603515625	-121.0349807739258	-421.8808288574219	872.22265625	-207.1872100830078	-395.0155334472656	930.5708618164062	-190.27197265625	-699.343505859375	1295.193969726562	-112.6012573242188	-764.5769653320312	1245.212646484375	-97.53316497802734	-889.81640625	1028.688354492188	-144.7838897705078	-902.669189453125	1012.796325683594	-208.6195983886719	-771.8785400390625	862.0387573242188	-58.62529373168945	-856.0323486328125	829.484375	-65.31551361083984	-893.3771362304688	978.8934936523438	-131.5502777099609	-764.7061767578125	706.5966796875	-19.08026123046875	-771.8671264648438	777.0769653320312	-5.925477027893066	-838.9523315429688	767.2738647460938	-30.17698669433594	-661.9564819335938	1456.143798828125	-153.6801910400391	-487.5545654296875	1522.352661132812	-226.6977233886719	-546.3135986328125	1519.005249023438	-113.6170501708984	-602.0744018554688	1455.369750976562	-301.2821960449219	-614.5590209960938	834.39306640625	-439.2809143066406	-656.7570190429688	852.2219848632812	-118.9980239868164	-552.6136474609375	847.6268920898438	-335.4837341308594	-701.8507080078125	414.8506774902344	-441.4214477539062	-646.740478515625	566.9149780273438	-432.3614807128906	-1032.929443359375	179.1696929931641	-627.1998901367188	-803.55517578125	325.0950622558594	-507.4774780273438	-987.8805541992188	33.43098831176758	-535.523193359375	-1028.52685546875	80.84878540039062	-519.2098388671875	-993.0880126953125	80.23947906494141	-620.1327514648438	-1077.4755859375	219.7082977294922	-580.5523071289062	-665.8361206054688	448.7946472167969	-115.0956420898438	-739.7158203125	698.9456176757812	-80.77445983886719	-852.5674438476562	100.7450103759766	-283.0668334960938	-687.9915161132812	314.3916931152344	-147.6990203857422	-691.3405151367188	41.00424957275391	-196.0347442626953	-706.9471435546875	51.07483673095703	-264.6203002929688	-784.014404296875	57.25849914550781	-205.0438537597656	-862.428955078125	116.5818252563477	-352.9502258300781	-772.8218383789062	827.1580810546875	-94.65301513671875	nan	nan	nan	
160	1.59	-795.3103637695312	934.6560668945312	-243.6064300537109	-736.2147216796875	930.6137084960938	-352.1055603027344	-740.3030395507812	1009.720275878906	-312.0166320800781	-519.1878051757812	1103.843994140625	-169.9590454101562	-723.675537109375	1115.23291015625	-312.48779296875	-636.2033081054688	1320.35986328125	-250.3418579101562	-530.2855834960938	1205.695556640625	-173.4772644042969	-752.9046630859375	1219.542724609375	-238.4785308837891	-610.4017333984375	1274.651489257812	-342.3145751953125	-481.0879821777344	1297.648193359375	-333.6350402832031	-471.6559448242188	1177.4501953125	-406.3900146484375	-484.1566772460938	1000.281982421875	-426.5136108398438	-578.2291259765625	971.30859375	-453.3435974121094	-429.2986145019531	962.1028442382812	-241.0641021728516	-447.8142395019531	871.6845092773438	-259.5167236328125	-460.5084838867188	960.9942626953125	-373.0899963378906	-424.1473083496094	889.8878784179688	-127.0629959106445	-416.1257934570312	856.6492919921875	-215.2350158691406	-387.0766906738281	912.7886352539062	-195.2193756103516	-684.5767822265625	1292.18798828125	-100.7841796875	-749.5748291015625	1241.151977539062	-84.00511932373047	-870.5042724609375	1021.350891113281	-126.6211547851562	-886.0645751953125	1004.79150390625	-189.5137939453125	-743.2767944335938	859.844970703125	-46.08552169799805	-826.1445922851562	824.0723876953125	-48.04486846923828	-871.8670043945312	971.5932006835938	-113.2061767578125	-727.3428955078125	705.5223388671875	-7.331871032714844	-737.0302124023438	775.4103393554688	6.412362575531006	-804.6371459960938	762.7190551757812	-14.08121013641357	-649.4576416015625	1452.778076171875	-144.188232421875	-476.0617065429688	1520.475219726562	-218.0746612548828	-534.5448608398438	1517.353149414062	-104.8544692993164	-589.89404296875	1451.477416992188	-291.8464965820312	-602.2442016601562	831.4425659179688	-430.6005554199219	-646.8600463867188	849.9817504882812	-110.5883255004883	-541.6142578125	845.4837646484375	-326.3251953125	-675.0568237304688	408.0751647949219	-425.9928894042969	-626.8826904296875	562.6381225585938	-419.9089050292969	-1010.605407714844	190.9869079589844	-618.9102172851562	-777.1087036132812	322.5671997070312	-493.7408447265625	-980.3792724609375	34.23448944091797	-533.8646850585938	-1015.453063964844	87.51296997070312	-515.5108642578125	-979.3883666992188	88.30741119384766	-615.8084106445312	-1052.314697265625	232.8331756591797	-570.9076538085938	-662.9690551757812	443.9993286132812	-113.6302795410156	-732.0494384765625	695.3985595703125	-74.98809814453125	-853.2750854492188	99.26453399658203	-284.8179016113281	-686.5126953125	309.6175537109375	-147.8814239501953	-692.3070678710938	41.20191192626953	-196.7998504638672	-707.7236328125	50.36740112304688	-265.7313232421875	-784.7088623046875	56.46587371826172	-206.1351013183594	-863.2723388671875	115.1314697265625	-354.8106689453125	-763.242919921875	825.0250854492188	-87.55947113037109	nan	nan	nan	
161	1.6	-784.0950927734375	932.9014892578125	-236.8278045654297	-724.9482421875	927.764892578125	-345.3712768554688	-729.1258544921875	1007.683532714844	-303.0733337402344	-506.4020080566406	1100.088256835938	-161.3492279052734	-712.0637817382812	1113.001220703125	-301.8041381835938	-623.1387939453125	1317.84912109375	-239.1874694824219	-516.9493408203125	1201.9521484375	-164.3794403076172	-740.2918701171875	1217.307739257812	-225.8356170654297	-598.7610473632812	1272.361083984375	-331.5749816894531	-469.086669921875	1294.416259765625	-324.6299133300781	-462.6264953613281	1175.6640625	-399.7664489746094	-479.2357482910156	998.7918701171875	-425.2137756347656	-574.895263671875	974.0814819335938	-450.9111022949219	-421.6146850585938	948.652099609375	-242.978515625	-443.0281982421875	860.2635498046875	-267.05712890625	-455.6850891113281	955.723876953125	-374.2690124511719	-414.9469299316406	868.4957885742188	-135.3274536132812	-410.3226013183594	841.8232421875	-225.2651672363281	-379.3544311523438	895.5464477539062	-202.1026763916016	-669.5880126953125	1288.845947265625	-88.8712158203125	-734.2385864257812	1236.576904296875	-70.25040435791016	-850.0757446289062	1013.199157714844	-107.3385925292969	-868.509765625	995.79833984375	-169.0685424804688	-713.2640991210938	857.7898559570312	-33.30427169799805	-794.358154296875	818.5948486328125	-30.22893905639648	-849.021728515625	963.5792846679688	-93.82279205322266	-687.8606567382812	705.0962524414062	4.245973110198975	-700.2910766601562	774.2453002929688	18.70368194580078	-768.10009765625	758.3617553710938	2.259864807128906	-636.7192993164062	1449.012451171875	-134.6871337890625	-464.3653259277344	1518.220336914062	-209.4490051269531	-522.5650634765625	1515.329711914062	-96.09499359130859	-577.439697265625	1447.19970703125	-282.4108581542969	-589.9473876953125	827.9064331054688	-422.0566711425781	-637.2919921875	847.6094360351562	-102.2664337158203	-530.7886352539062	843.0286865234375	-317.2734375	-647.070068359375	401.6741638183594	-409.6300964355469	-606.435302734375	558.339599609375	-406.9618530273438	-986.020263671875	202.7955322265625	-609.2080688476562	-749.1541748046875	320.1986083984375	-478.8587036132812	-969.9463500976562	35.98178863525391	-531.0704345703125	-999.6875610351562	94.7442626953125	-510.5384521484375	-962.8051147460938	97.16134643554688	-610.0918579101562	-1025.29833984375	245.5224914550781	-559.9738159179688	-659.6473388671875	439.5853271484375	-111.7834930419922	-724.5415649414062	691.9674072265625	-69.37067413330078	-853.849609375	98.34486389160156	-286.0533142089844	-684.4500732421875	305.2640686035156	-147.7165069580078	-693.0550537109375	41.4563102722168	-197.3482666015625	-708.3869018554688	50.03177261352539	-266.6023864746094	-785.2327880859375	55.99467468261719	-206.9089202880859	-864.0773315429688	114.2928085327148	-356.1114807128906	-754.22509765625	822.7503662109375	-80.7974853515625	nan	nan	nan	
162	1.61	-773.062255859375	930.7432861328125	-230.6012268066406	-713.8110961914062	924.3899536132812	-339.1468811035156	-718.0303955078125	1005.291809082031	-294.4244384765625	-493.6106262207031	1096.111328125	-153.0442504882812	-700.42138671875	1110.34521484375	-291.0961303710938	-610.1115112304688	1315.094848632812	-228.0510406494141	-503.5778198242188	1197.955810546875	-155.5693511962891	-727.5027465820312	1214.617797851562	-212.94482421875	-587.3324584960938	1269.808227539062	-320.9342346191406	-457.3257446289062	1290.972290039062	-316.0489807128906	-454.0692749023438	1173.761962890625	-393.5149536132812	-475.0137939453125	997.6822509765625	-424.3976745605469	-572.1166381835938	976.9774780273438	-448.4623107910156	-414.3828735351562	935.89697265625	-246.1707916259766	-438.3428039550781	849.8402709960938	-275.9075317382812	-451.4374694824219	951.0775146484375	-376.2061462402344	-405.7492370605469	847.8718872070312	-145.6339874267578	-404.5035400390625	828.2756958007812	-236.9944610595703	-371.8869323730469	879.43359375	-210.7189788818359	-654.4185791015625	1285.3037109375	-76.93422698974609	-718.5718994140625	1231.653198242188	-56.39567184448242	-828.4671630859375	1004.483459472656	-87.12168884277344	-849.8516845703125	986.0501708984375	-147.4644012451172	-682.037353515625	856.1033325195312	-20.41437530517578	-760.8198852539062	813.372802734375	-12.11517810821533	-824.8063354492188	955.126220703125	-73.60342407226562	-646.6962890625	705.598876953125	15.53920364379883	-662.0038452148438	773.8722534179688	30.79780578613281	-729.62255859375	754.5641479492188	18.61727523803711	-623.7273559570312	1445.012573242188	-125.1805801391602	-452.4122009277344	1515.681518554688	-200.8134307861328	-510.3200378417969	1513.029052734375	-87.329345703125	-564.705322265625	1442.70751953125	-272.9818420410156	-577.6029052734375	823.95068359375	-413.6413879394531	-627.9780883789062	845.2218017578125	-94.00926208496094	-520.0572509765625	840.3960571289062	-308.3185729980469	-618.0592651367188	396.0418090820312	-392.3533630371094	-585.433349609375	554.2984619140625	-393.5674743652344	-959.31640625	214.3234100341797	-598.0557861328125	-719.8475341796875	318.2293090820312	-462.8310546875	-956.0758056640625	38.72213363647461	-526.7877807617188	-981.0171508789062	102.3153839111328	-504.0561828613281	-943.0776977539062	106.5007781982422	-602.7550659179688	-996.7090454101562	257.5272521972656	-547.7990112304688	-655.947021484375	435.5347595214844	-109.504280090332	-717.15087890625	688.7236328125	-63.88790893554688	-854.2176513671875	97.91332244873047	-286.8310546875	-681.8778076171875	301.3019409179688	-147.1899719238281	-693.5635375976562	41.7018928527832	-197.6866760253906	-708.8714599609375	49.95675659179688	-267.2301330566406	-785.5440063476562	55.75427627563477	-207.3979034423828	-864.7257690429688	114.0066146850586	-356.9181823730469	-745.6912841796875	820.4328002929688	-74.35426330566406	nan	nan	nan	
